<mxfile host="Electron" agent="Mozilla/5.0 (X11; Linux x86_64) AppleWebKit/537.36 (KHTML, like Gecko) draw.io/24.7.17 Chrome/128.0.6613.36 Electron/32.0.1 Safari/537.36" version="24.7.17">
  <diagram name="Page-1" id="x06RyQpvFY75FsCddVEx">
    <mxGraphModel dx="1114" dy="1975" grid="1" gridSize="10" guides="1" tooltips="1" connect="1" arrows="1" fold="1" page="1" pageScale="1" pageWidth="850" pageHeight="1100" math="0" shadow="0">
      <root>
        <mxCell id="0" />
        <mxCell id="1" parent="0" />
        <mxCell id="x1DAnEMLsISLGP-B9rOb-1" value="" style="shape=image;aspect=fixed;image=data:image/png,iVBORw0KGgoAAAANSUhEUgAAAaQAAAJVCAYAAACRaoEUAAAABHNCSVQICAgIfAhkiAAAAAlwSFlzAAAXLwAAFy8BtZOOnwAAABl0RVh0U29mdHdhcmUAd3d3Lmlua3NjYXBlLm9yZ5vuPBoAACAASURBVHic7L13nF1Xee/9XdN70cxopBlpNOq9W82WZFuWe8XYBmzANNNDC4EAuckiIT2Q3hsJyU3e5L43uQkhyc2bm4SQkNx7gXsJhF5CM2AwGGxcZHu/f+xz7NHMmTltlWft/Xw/Hz5Y0jl7PdI5s3/76SbLMhRFkYUx9nLgb7PMPh7bFkUJRUdsAxRFOR9j7BzwWhUjpWyoICmKIIyxXcAfAF+MbYuihEYFSVFk8RbgQuCDsQ1RlNCoICmKEIyxVwKvq/xSBUkpHSpIiiIAY+xa4B2AqfzWv0U0R1GioIKkKJExxnYAvw9MVX7ry1lm74lokqJEQQVJUeLzn4BLF/xavSOllKggKUpEjLEHyQVpIZo/UkqJCpKiRMIY2wn8OtC56I9UkJRSooKkKPF4JXC4xu9ryE4pJSpIihIBY+wG4Adr/NHjwL8HNkdRRKCCpChx+GVgsMbvfzHL7MOhjVEUCaggKUpgjLHPAK5e5o8/FdIWRZGECpKiBMQYOw78zAov+XQoWxRFGipIihKWnwJWr/Dn6iEppUUFSVECYYy9BHhenZeph6SUFhUkRQlApefoFxt4qXpISmlRQVKUMLwA2NXA69RDUkqL0RXmiuIXY+ww8Algus5L78syOxbAJEURiXpIiuKf11NfjEC9I6XkqCApikeMseuA1zT4cs0fKaVGBUlR/PIWoL/B16qHpJQaFSRF8YQx9gDwrCbe8kVftihKCqggKYo/formfsa+7ssQRUkBFSRF8YAx9hrgsibf9jUftihKKqggKYpjKk2wP9nCW9VDUkqNCpKiuOdOGmuCXYwKklJqVJAUxSHG2C7gTS2+XQVJKTUqSIrilmcCm1p437kss99ybYyipIQKkqI4opI7emOLb1fvSCk9KkiK4o5nAFtbfK8KklJ6VJAUxQHG2A7g+9q4hAqSUnpUkBTFDbcB29t4vwqSUnpUkBSlTYyxBvhPbV5Gm2KV0qOCpCjtcwut9R0tRD0kpfSoIClKGzjyjkAFSVFUkBSlTW4C9jq4jgqSUnpUkBSlPdqprFuICpJSelSQFKVFjLEngUOOLqdFDUrpUUFSlNZ5ucNrqYeklB4VJEVpAWPsDHCzw0uqICmlRwVJUVrjRUC3o2tlwL2OrqUoyWKyLIttg6IkhTG2B/gPYI2jS96bZXbC0bUUJVnUQ1KU5rkFd2IEGq5TFEAFSVFawWUxA6ggKQqggqQoTWGMPQyccHxZFSRFQQVJUZrFtXcEcM7DNRUlOVSQFKVBjLGTwNM9XForixQFFSRFaYYXAH0erquCpCioIClKQxhjO4GXeLq8CpKioIKkKI1yAzDn6doqSIqCCpKiNIqPYoYqKkiKggqSotTFGLsLOOPxCBUkRUEFSVEawad3BCpIigKoICnKihhjR4BneT5GBUlRUEFSlHo8FxjyfIYKkqKggqQoy2KMNcDLAhylgqQoqCApykpcAWwNcI4KkqKggqQoK/Fdgc5RQVIUVJAUpSbG2E3A1YGOU0FSFFSQFGU5Xka4nw8VJEVBBUlRlmCMHSCvrguFCpKioIKkKLW4HRgPeJ4KkqKggqQotbgz8HkqSIoCdMU2QFEkYYydBy4KfKwKklJqjLGXAw+qICnK+dwOmMBnqiAppcQYewD4ceCvs8y+TUN2inI+z4xwpgqSUiqMsXPG2N8F3gf8fZbZt4GG7BTlCYyxh4CdEY5WQVJKgTF2DHgjedN5H2CzzP5o9c9VkBTlSWJ4R6CCpBQcY2wP+RqXNwGrKr/9o1lm37zwdSpIigIYYzuBp0c6XgVJKSSVAcXPAH4YmF/wR2/NMvvGxa9XQVKUnDPA2khn90U6V1G8YYw9A/wEcHjRH/1CltnX1nqPCpKi5MQK1wGMRDxbUZxijN1LXjlXaxbkrwGvWO69KkhK6amMCro5ogmjEc9WFCcYY2eBHyJvLK9Vwf124MVZZpcNUasgKQrciP+tsCuhgqQkS6Vg4fXAG4D+ZV72+8DzVxIjUEFSFIA7Ip+vgqQkSSVP9EvA9hVe9sfAnVlmH693PRUkpdQYY6eAKyOboTkkJSmMsauBt1I/9/qnwO1ZZh9r5LoqSErZeRrxfw7UQ1KSoFLG/ULgx4CxOi9/F/C0LLOPNnp9HR2klJ2Y1XVVeo2xvbGNUJSVMMbuB/4Z+BXqi9G7gZuzzD7SzBmxnwwVJRrG2C3Asdh2VBgB7olthKIsxhg7BLwZeCXQ2cBbPgLclGX24WbPUg9JKTOxixkWomE7RRzG2KeQC8xraEyM7gauzjL7jVbOUw9JKTMSwnVVVJAUMVT2gv08cF0Tb7sfuDbL7H+0eq4KklJKjLHHgC2x7ViAVtop0THGdpN7Q98PDDTx1keBW7LMfqCd81WQlLIiyTsC9ZCUyBhjTwG/DOxu4e0vyjL71+3aoIKklA5jbBd5ubckVJCUKBhj+4GfBF5Ka9uS35xl9rdc2KKCpJSRK4Cp2EYsQkN2SnCMsRcAv8fKkxZW4rezzFpX9qggKWVEWrgO1ENSAlLZ//UG4AdoXQf+mrxJ1hkqSEqpqPRU3BjbjhqoIClBMMZuBt4BnGjjMh8gL2JoeApDI2gfklI2bqa56qFQqCAp3jHG3gX8H9oTo/8gL+++341VT6IeklI2JIbrQHNIikcqw1B/A7i+zUt9g7zx9e72rVqKekhKaTDGriVfVS4R9ZAULxhjbwD+jfbF6GHykUAfad+q2qiHpJSJp9HY+JMYqCApTqnkS38aeIGjSz4/y+y7HV2rJipISpmIuaa8HhqyU5xhjD1BXriw2dElfzrL7O87utayqCAppcAYOwlcFNuOFVAPSWmbyuif7ycv6XYVDfh74HWOrrUiYgTJGLsV+IzrMkJFqXA9snOmKkhKW1TWqfwhcNjhZb9Ak0v22kHSD+g48IOxjVAKi8Teo4UMVUYaKUrTGGOvB/43bsXoYfIle191eM0VkSRInwFeb4y9NLYhSrGozOq6PLYddTDATGwjlLQwxnYYY98C/Dfce9kvyzL7vxxfc0XECFKW2XuAB4F3GGNXxbZHKRSXI7MZdjHrYxugpIMxdgL4S+BNtDYUdSV+Ncvsbzq+Zl3ECFKFzwCzQPB/CKXQSA/XVVFBUhrCGHsYeB/5oGDXvBd4hYfr1kWiIAHcZIx9UVRLlEJgjO2g/YbAUKggKXUxxr4A+Cdgg4fLf5l8Rt0jHq5dF6mCBPDTxtid0SxRisKFyFs1sRwqSMqyGGN7jbG/Dvw60OvhiHPArVlmv+Th2g0hWZD6gT80xvr4h1fKQyrhOlBBUpbBGLuB3CtyNXWhFq/JMvsej9evi2RBAtgH/HgMQ5TCoIKkJI0x9gryfJHLku7F/G6W2V/weP2GkC5IAK80xl4T3BIleSoh362x7WgCFSTlCYyxxhj7JvJKugmPR70fEJGzT0GQAH7bGDsd1BKlCNwU24AmmdIQtQJgjB0l7y16C37v0/cBT80y+5DHMxpGlCBlmf028PUaf7Qa+B1jrOtae6XYhA/XTUy2824DrHNkiZIoFc/+fYSpDn1ZltnPBjinIUQJUoXlvKQrgVeHNERJl8ruo6NBDx0ZhfHxdq+iYbsSY4y9BPhn3E3pXok/CDHBuxlSEiSAHzXGHgxmiZIy1+O+e31ldu+GBx5o9yoqSCXFGHsH8NfAWIDjPge8NMA5TSFRkD69wp/1AH9gjE1hDIwSl/Dhut274YH7272KClIJMcZ+H/B75Pc43zwOPDvL7DcDnNUUEqcLr+QhAWwHfha4K4AtSoJUNmVeFvTQsTGYnVEPSWmKyoT3XwGeH/DYn8gy+w8Bz2sYiR5SPUECeIEx9qneLVFS5Sr8dLIvz+7d8NBD8Nhj7V5JBakkGGOHgb8grBi9n3yBn0hSFSSAXzfG6g+vUosI4bo9cH/b3hGoIJUCY+w64D34GY66HN8B7sgyey7gmU0hUZD+gzzGWY9x4PcqwzMVBXgiBHJt0EPHV8HatS7yR6Bl34XHGLsf+BfySTQheW2W2Y8GPrMpxN3MK1NmGx3udxp4o0dzlPQ4Rf6wEo7du/P/d+MhrTLGDrq4kCIPY+yVwD+Sr9kJyTuzzP5y4DObRpwgVWg0bAfwA8bYE94sUVIj/HSGPRVBcuMhgXpJhaSyNuKdwHDgo79K2DxVyxRBkLqA368kCBXlhqCnTUzC9Jr8v914SKB5pEJRmUn3w+RrI2JUNj8vy+xXI5zbNFIF6QtNvn4j8GM+DFHSoRKbnw96aDVcBy49JBWkgmCM7SHvL4qVWvilLLN/EensppEqSF9p4T0vMcaedG6JkhJxmmGrqIekLMAY2wf8CXB7JBM+C3xPpLNbokiCZMhLwXVacnkJK0hTU7B69ZO/Vg9JqVCZJvNOIObqnJdlmf1OxPObpkiCBLAD+E8uDVHSoNKTdijooQu9I1APSQGeaHj9K0JPCzmfP8oy+66I57dE0QQJ4HXG2ND1/Up84jTDLqT9sUFVQkx6VjxgjB0D/oa8/SAW9wGvinh+yxRRkLqB3zDGdroyRkmCsIK0ehomF+w+euRheNRZA/ymSv5BSQhj7ATwt8CxyKa8Icvs3ZFtaAmpgvQNoJ2f7iPAKx3ZoginMkz14qCH7vEWroP853KbywsqfqlstP57QoeNl/IvwK9GtqFlRApSltmMvJmrHX7IGLvJhT2KeC4h94zDsWvX+b92V9DwxAmuL6j4wRg7C/wDsKfeaz3zKPCiLLONjF4TiUhBqtBO2A5ggISfFJSmCDmgEiYmlq4qd+shAex0fUHFPcbYDeRitD22LcDbssx+MLYR7VBkQQI4a4x9roPrKLK5Muhp22vce9RDKh3G2M3Au5FRhPJZ4M2xjWiXogsSwFsr8V2lgFSeUMPmW2oJknpIpcIYu4NcjOZi21Lhpan1HNWiDII0Dvy8o2sp8ggbrusfgPU12oTce0jbKqs0FGEYY/eSh+lmYttS4Y+yzP5lbCNcUAZBArjVGBu+T0UJQVhB2roVTI0fG/ceUjewxfVFlfYwxh4A/g5YXe+1gbiPAlUUl0WQAH7JGDvq+JpKRCq9ZmG74WuF68CHhwQathOFMXYb8NfARGxbFvDGLLNfjm2EK8okSDPATzi+phKXCwi5jK+zE7Ysk7927yGBFjaIoTKa6m+Q4xkBfJSCVRKXSZAA7jLGhm2gVHwSNlw3vxF6lpndqx5SYTHGTpGLkZQChipvzDL7WGwjXFI2QapOBNexLMUgrCBtX6aY79w5eOQRHyeqhxQZY+wI+aBUCX1GC3lvltk/iW2EayQL0tcBH+q/FfgBD9dVAlK5URwPemjY/BHADmOs8XVxZWWMsf3AnxN/HFAtXhfbAB+IFaTK+Iuvebr8ayvVMkq6nCHkOug1a2BkmZoYP/kjgH5Cb8BVADDGdgN/DJyObUsN/jzL7HtiG+EDsYJUwUfYDvIb2W/qRPCkCRyuWyFi489DAg3bBccY2wH8DnBtbFtq8BjwvbGN8EVZBQlyN/y7PV5f8UtYQdq2giD585BACxti8IvAM2IbsQy/k2X232Mb4QvpgvQtz9e3OhE8PSqfWbj5YcPDMLN2+T9XD6kwGGN/BHhxbDuW4SEKnv8uuyD1A2/zfIbingje0Qq1BeohFQJj7PcAb4htxwr8bJbZL8Q2wifSBenbAc640Rh7eYBzFHfIyR+Bbw9JBSkAxtgXILtx/hvAj8U2wjcqSDk/o4Ms06DyOZ0JdmB3D2zcuPJr/HpIo8ZYKUM8C4kx9hbkTzz4kSyz34xthG9UkHJ2AS8NdJbSHkeBcDMJN2+CrjrPKt/xKkigeSRvGGOPAu9A9r3w88AvxDYiBJI/BPCfQ1rIm42xk/VfpkRGVrgO4OGHfVuhguQBY+wc8N8A6ZNbfjjL7EOxjQiBdEEK5SEBjAFvCXie0hrhtsMaA1sb2P3nZ2zQQjSP5Bhj7BD5FIY1sW2pw1fIe6JKgQrS+dxljN0f+EylQYyxY8CRYAfOzMDgYP3X+Rek3b4PKBOVxtf/DOyLbUsD/FxZvCNQQVpMB/Bzgc9UGucyINx0jU0NtDo9eg6yzLclBys3UcUNPwlcH9uIBrgf+OXYRoRE+pc8tCABnDbG3hbhXKU+YfNHmxvomX7Yu3cEMISG7ZxgjL0LeE1sOxrk17LMfiO2ESGRLkghixoW8pOVSb+KLMIJUncPrF9f/3X+w3VVjoY6qKgYY8+QjwVKgXPAT8c2IjTSBSmGhwT5Iq7XRzpbqYExdishJ1/Pz0NHA9HBcIIULndWQCrrx/8L0B3blgb5z0WfylALFaTleV2lLFSRgbxwHcAj3ku+q6ggtYgxdhXwTkKuu2+PjDzPVTqkC9L95B9ODPqBn4p0trKUsILUSEEDhPSQ9hlje0IdVhQqe43+X/LFnKnwF1lmPxzbiBiIFqQssxngvQ1+BW41xl4c8XyFJ24qlwY7cHgEpqYae204QeoBtCWheX4ZuCS2EU0ieaaeV0QLUoVYhQ1VflYX+UXnBDAc7LRGw3UQUpBAw3ZNYYx9LfD82HY0yXuzzP5jbCNikYIgxcwjQf5UeldkG8qOzHAdhCr7rqKC1CDG2LPAj8e2owVK6x2BClKjvMUYm0pCtIhcFu4oA5vUQ0qZynT03yeN+9tCPkU+W6+0pPCBSRCkCeDNsY0oI8bYQeBwsAOnpxsbF1QlrCDtrMxgU5ahsp7k/wFWx7alBX6zkjcvLSkIkpQ5Ti8xxupMsfCcIGTvyOYmN6OHK/uG/Oc1nDinyY8CJ2Mb0QKPAm+PbURsUhCkR2MbUKEL+JnYRpSQsFWOzRQ0QGgPCTRstyzG2BuB18a2o0XelWX27thGxCYFQXostgELOGuMvSm2ESUjnCB1dcHchubeo4IkAmPsRtL2MH4jtgESSEGQpHhIVd6qDYphMMb2EXKG29xc/e2wi1FBio4xtpd8LNBYbFta5EvAu2IbIYEUBEmShwSwCXhxbCNKwjGgN9hpzZR7Vwlb9g2wUTcbL+FngEOxjWiDt2eZlXafi0IKgiTNQwJ4k1Y7BSFw/qgFQQrvIQFcEONQiRhj7yDtB8QM+M3YRkghBUGS+OSwGnh1bCNKwOlgJw0Mwprp5t8XR5A0bAcYY3cCvxrbjjb5uyyzn45thBRSECSJHhLAa42xE7GNKCqV+XUngh24aRNgmn9f2LLvKqXfjVTpT/svQBNNYyLRYoYFpCBIEj0kgBHgDbGNKDBHgIFgpzVb7l1FPaRY/CqwK7YRbXIv8F9jGyGJFARJqocE8DJj7LrYRhSUcOE6aK2ggQweOefclAaYNsY2sM62mBhjXwjcEdsOB/xeltkoLrZUUhAkqR4SQB/w/bGNKCjhChomp2BkpPn3nTtHvHVd5fSSKpuDi7La++2xDZBGCoIk2UMCeG5lPbLiiMq6j4uCHdhquC58yfdCSidIle/FOwgZyvXHZ7PMfiC2EdJIQZAke0iQjxT6odhGFIyDhNx/1FK4jlj5oyplLGx4I3lvWhH409gGSCQFQZLuIUG+WTblxjxphAvXdXTC/Hxr740rSCfKNDHEGHsBxQqPqyDVIAVBku4hQV4v/COxjSgQ4QRp/TroafG+Hqfku0o/JfGSjLH95KG6Juc6ieVrwHtiGyGRFAQpBQ8J4EpjbNjJAgXEGNtByPUBrYbrILaHBHBJbAMC8WPAjthGOOTPdFRQbVIQpJQ+uB+NbUAB2AuE287bakEDSBCkS2Mb4JvKKvLvim2HYzRctwwpCFIqHhLkcf0bYhuROOG8zL5+mJlp/f3xBanQeSRj7Bjw27Q0QkMsDwB/E9sIqaQgSKnxw5Wwk9Ia4RpiN24E08ZH9Wh0570fOB7bCI/8IlC0xvO/yjIrZQu2OFK4cYZbP+CGPRSjizwW4QSpnXCdHC6JbYAPjLFPA26PbYcH/iS2AZJRQfLDm4scSvGFMXYXMBXswHYKGuRwSWwDXGOMnQF+KbYdHjgH/EVsIySTgiD1xTagBTYCL4xtRIKE847Gx/P/pc+JysbUIvFbwKrYRnjg77PMfjO2EZJJQZBS/WH7vsqIfKVxwhU0tLKMbwnR5tgtpI8C5ZGMsS8Groxthyd0TXkdUhCkFD0kgGngVbGNSIxwHlIxwnVVLoltgAuMsWvJe46KyrtjGyCdFAQpVQ8J4HuMsUUMPTjHGLsFaKMGu5nDOvIKu+JQlH6knwNGYxvhiW8B/ze2EdJJQZBS9ZAg/+F6fWwjEiFcuG5mBvocfK1EROwAOG6MTfnnBGPsdcAtse3wyD/pdIb6pCBIKXtIkC/xm4xtRAIklj8SRS8J55EqudZfjG2HZ/4xtgEpoILkn0Hg1bGNSADtP2qPlMN2PwjMxTbCM5o/aoAUBCnpUESFl1fGoCg1MMZuADYEOaynB9YVrfkfSLSwobK25ZWx7fDMg8D/im1ECqQgSKl7SAAjwCtiGyGYcOG6+fl8B5IT5CSRgGOp5ZEqG2B/DXD1gUjlX7PMRh98mAIpCFJSP2Qr8EpjbLgtqGmh5d7t0wtcGNuIJvku4HBsIwKg4boGSUGQiuAhQd55/tLYRgjlVLCTilfQsJBLYhvQKMbY9cAPxbYjECpIDaKCFJbXVLZfKhUqfVrbghw2MgKTDgseRUXsgIQECfgFYCi2EQE4B7w3thGpkIIgFSVkB7AanXG3mHDlysUN11U5lsIDjzH2ZqAse8Pen2X2O7GNSIUUBKlIHhLA6wo4DLMdwglSMcu9F9KD8DySMXYE+PnYdgTk/bENSIkUBEn8E1+TzADPjW2EIMIJUrHGBS3HJbENqMMPEWpElAz+LbYBKSFakCrhhyLuFfpeY2xXbCNiU9msezTIYasmYNB1ykJeEgm4PLYBy2GM3UH5CntUkJpAtCABhVhYU4MNwLNiGyGAnYQaprmh6IMAnuCIMTbcksPmeBtQtgcxFaQmkC5IRZ6U/YZKY2CZCReumwszCEIAHcBVsY1YjDH2KuDq2HYE5vNZZu+LbURKSBekonpIAFuBp8U2IjLhBKk8HhLAtbENWEglPP222HZEQL2jJlFBissbjbEmthERORHklKFhGPfgbItMIQFwpbAc5YvJw7NlQwWpSVSQ4rIbeEpsI2JQKf8Nc5Mql3cEMEYosa+DMXYceHNsOyKhgtQkKkjx+b7YBkTiKKG+f+XJHy1EStjOUuxc8EqoIDWJdEEqwxf5oDFWys0jJAXIH8mN2SFAkEpa5l3lHPDR2EakhnRBKoOHBOX0ksKElHr7YPV0kKOEsccYGztW+VbKV+Zd5eO6cqJ5VJBkcNwYeza2EYE5FuSUufVgSls3ck2sg42xV8Y8XwAfi21AiqggyaE0XpIxdiswEeSwudhOQlSihO1KXOa9kM/HNiBFVJDkcLEx9mRsIwIRrgLMZ0FDl/ho1JlIW2RfBOyKcK4kvhDbgBSRLkhlKGpYyOtiGxCIMAUNXV0w63GOZ6/4oe0DBB62WinnL2uZ90LUQ2oB6YJUJg8J4Dpj7PbYRgQgjCDNzEKnRy9GviBB+LDddxMqHCsbFaQWUEGShQFeE9sInxhjB4C9QQ7z3RCbhiAFKywwxk4Arw51nhfm52F42MWVNGTXAmIFyRg7BHTHtiMCzxY8rdkFRwhVCuy7IbYnCUHaVOkHCsHrASd38ygcOw5HjsK3v93ulR4HvuTAotIhVpCANbENiEQfxW4mDBOuMwbWr/d7RhoeEgQI2xlj1wAv832OF7q64KanwFVXwXv+0cUVv5xl9lEXFyobkgVpNrYBEXlppOqoEIQRpOk1/gUjHUEKEbZ7E3kRRVqMjMJznwf798PHPw533+3iqpo/ahEVJJmsprgL/MIIUoiBqukI0qlK9ZsXKhMhXujr+t6YmoK77oKZSiXmu//B1ZVVkFpEBUkurynaagpj7DyhQrEhBqp2dvqt4nNHN35Xm38/0OPx+u6ZnobnPAeGKmvtP/VJ+OIXXV1dCxpaRAVJLjso3uiVgBtiA01oSMdL8vJdqkzduNPHtb2xdi3c+RwYGHzy9/7BmXcE4CTuV0ZUkGTz3bENcEwYQVo18eSTr296k3EMrvHkcVtSGqA6OwvPvhP6+5/8vS98Hj7vNMrWdpleWVFBks2lxthDsY1wSJiRQSEX8qXjIa0BnH6XjLF7gKe7vKZX1q+HZz0b+hbVC73vfa5PUkFqERUk+RTCSzLG9gIHghwWciFfOoIE7rcT/yCy7yFPMj0Ndzxz6ef18EPw4Q+7Pu1+1xcsCyK/TJXQwtrYdgjhNmOs54aaIBwiVOJbPaTluNXVhYyxF+Be4PwwMgJ33FH7s/rgv8G5c65PVA+pRUQKEnnZcxmnNNSiC3hFbCMcECZ/NDQM4wFn8qYlSNuMsfscXesHHV3HL729uRgNL1P17j5cB+ohtYxUQdJw3fncZYxNdyRLTpj8Uej9R2mMD1pI216SMfYgcLUDW/zS0Qm3PW35jcFf/CJ85cs+TlYPqUVUkNJgFHhBbCPapDgNsQtJy0MCuMXBNb7XwTX8c8P1sGnT8n/+fi/eEaiH1DIqSOnwSmNsZ2wjWsEYOwOEyYOFLGiAFAVpR6U6riWMsVtwI2p+ufgS2L9CDc25c/ChD/k6XT2kFlFBSocNpHAjqM0FQU7p7curqUKSniBBe2G71yH3vpGzZStccvHKr/nkJ+CRR3xZoB5Si0j9Yqkg1SbVEvDDQU5Zvz6f8h2SNAWppQebiqcreyrD6Cjc/BTy1WIr8O8f8WXBw1lmnZftlQWpghQ4EZAMR4yxp2Mb0QJhBCl0/ghSFaRdxthdLbzv1UieWdfZCbfeBv11ho4/9mg+2dsPD/u6cBmQKkjbYhsgmBS9pDCCFDp/BCmNDlpMU2E7Y+w48GJPtrjhiivz0UD1+OSn4BFvuiH1npoE4v7xjLH9wLrYdgjm+spAyySohHn8T/ju7ILZ0I+DegAAIABJREFUGe/HLCFNDwmazyO9HAg0ILAFdu+Bo0cbe+1H/t2nJUkWHklBnCABm6kbAC41BnhJbCOaIIx3NDsbZxVEuoK0u9HV5sbYASQ3Z09Mwg03NPbaxx+Dj33MpzUqSG0gUZA0XFef51Q8yRQobv4IUhYkaNxLegEw6dOQljEGbroJehoMnX76M/DQQz4tUkFqA4mClEw4KiLjpDNlOUzJd4z8EUBfKs8FNakrSMbYbiTnLY8ehXVNRPg/+Ql/tuSoILWBClK6vDS2AQ3i30MyJi/5jkF39/m7ddJirzF2e53X3I7UqtfRMThzWXPv+fRn/NiyAGOsxPtqEkj8h9OQXWNcUJm4LJZgBQ3Ta+KGzkZG453dPvV6kl4fxIpWuO66xkN1APffD/d81Z89T6JeUotIFCT1kBpHupcUqNw78gP8aNKCtGzYzhh7BtgZ0JbG2bcPtmxp7j2f8e8dVVBBahFRglSZaO3/ibo4PL3SHyKVYhc0VElbkPav0EYgs+9oYBCuuqr5933m0+5tqY0KUouIEiTUO2qWfuA5sY1YgeI2xC4kbUGCGmE7Y+wa4KYIttTn6qvqT2OoRYD8UQUVpBZRQUqfl1Q27ErEvyCtWgVDkfs1R5dZ/pYOtcJ2z0fiksyt22DP3ubf94174b5vurenNoOhDioa0gRJCxqaZyvQZKmRf4yxawmxhj62dwRF8JAOGmM3V39RqRJ7YUR7atPTC9dd29p7P/tZp6bUQXIYXTTSBEk9pNaQWNxQjvwRFEGQAG5b8N/XILHU++zZ1isav/IVt7asjApSi0gTJPWQWuMGY6y0lR3lyB8BDA+Dkfaj1DTPWvDf8kZTzc3BkTa6HL56jztb6qOC1CJifooqYYKWN1mWnE7khVj890gNDeU5pNiYjlyU0manMfYCY+w80EIJm0c6u+D6G2hrxOVXg/QfVRkLeViRECNIwHY0GdgOdxljI0wXXRb/HpIE76hKMcJ2d5I/2Ei6L8DFp2GyjVF6D34HHgi6xFU9pBaR9MULE+IpLmsRUqYbrKBBQv6oSvqVdgDPIK+uk8P0NFx0UXvXCBuuAxWklpEkSIdiG7CE0Ouw20dKcUN58kdViuEhTQCrYxtxHtdcCx1ttvWEGRe0EBWkFpEkSPI8pFgDO1vn0kZ33HjG/2fZ25s/PUuhGIIki23b3YyFUg8pGUQIUqWx80BsO5awfXv7T2fhkVAh5V+QZmZlebBpD1iVh+mAs47a68IWNIAKUsuIECRgCyAvCP/IOTiwP7YVzXJnZcNnTPwL0jphVe7qIbll/36YchQ9DB+ymwh9YFGQIkjywnWQP1mdOp2alzRKvsMmCpUZaDPeD5ptYilbCFSQ3NHVBZde6uZaDzwA3/mOm2s1jqDkZlpIESR5BQ2QC9LYWIpeUszihjAPF7PCPKT+fuhuYjePsjxHj8GIo4BJeO8IYKayaVdpEimCJNNDuvdeePTRFL2kg8bY45HO9v9Zjo7GH6hai2KUfselrx9OnXR3vfAFDZDfV4W58GkgRZAOxjagJtnj8LV7UvWSYhU3+J/QIC1cV0XDdu1z6mQuSq6I4yEBzMc6OGWiC5IxdhOSq1KqFTrpeUm3GWNjJFfLV9BQRSvt2mNkJA/XuSR8hV0VzSO1QHRBQmr+qEr1C52el9QHPC/kgaUtaKgypoLUFpdemhc0uCROyA5UkFpCBakeX1nwhJWel/SiwMv7/HtHHR2w1v9UopZwVaZcRqZW56XeLnnwQXjoQbfXbJz5WAenjARBklnQUGWhy5+el7QZuDLgef4/y9WroVtoAdOaNbEtSJezl7lf4fFg8HLvhaiH1AISBEm2h/St++Dhh578dXpeUsjiBv+CJDVcBzA+Br19sa1Ij7m5fEyQax58qP5r/KGC1AJRBckYOwe0MVc+EGl7SddW/p1D4P8fRmpBAwAG1giar5cKZy/3c9144TqA9cLWwSRBbA9JtndUZXGlTlpeUifwIt+HGGNHCfFUKNlDAg3bNcuOHf6GGMf1kLqBnTENSJHYgiQ7f1RlsSCNjcEBebNgV+D5ATrH93q+fj7hu51FbSFQQWoc0wGXORqgWosHo3pIkMoDtyBiC1IaH9i931j6e6dOpeQlTQNP9XzGPs/Xh5kZWRO+a7FGaAWgRPbvh8kpf9ePG7KDVO5vglBBaoT7vrn099LzknwXN/gXJOnhOoCpqZQeVCJi4GSbm2DrETdkB6nc3wQRTZCMsTNAGvGNb95X+/fT8pJOG2N3e7y+/5Cd6IKGCp2duSgpK7NjO0x4Dr/GD9kdMMbGfuhPipj/WOk8PZx7pHZPQ3pekpcp4JXmW/+ClIKHBJpHaoSLPHtHICFkNwRsjW1ESsQUpDQKGqoUw0t6ljHWx5jseWDYw3WfROqE71qsVUFakbkNsM5TZd1C4ofsIKUHbwGoh9QotfJIkJqXNAw808N1NX+0EPWQViaEdwQSQnaQ2n0uMuohNcpyHhLA6aS8JB/FDQEEKYH8UZVpFaRlmVoN2wJFseKH7EAFqSmiCJIxdhpI6A7D8h4SwGhSXtI+Y6zrR1T/gpRCQUOVvj4Yk7tRJSoXXQgEKt3XkF1yxPKQTkU6t3VW8pAgNS/JdXGDX0Hq6IC1/rdaOEXDdksZGYG9/mtfAHjssbwYKT5jxtiNsY1IhViCdCbSua3zzRU8JEjNS7rFGOukNtkYOwBscXGtZZE84Xs5VJCWcvxEuIc2GeG6KmmlJyISS5AujXRu66wUsquSjpfUg7vlfbvx/T1KqaChigrS+fT1weGA9+WHHw53Vn00bNcgwQXJGLsW2BH63LZ58EF4pE4IIC0v6fmOrqP5o1po6ff5HDkCPT3hzpM1YkoFqUFieEiXRDjTDcXykrYaY087uI5W2NViZBT6+2NbIYOuLjh2LOyZHaIGJKggNUiMTy29/FGVeoUNkHtJB5Pxkl7g4Bp+Bamn1+8ATp/MJCikPth/AAYDNzXLeiicMsYmGHcOTwxBSi9/VOX++xt7XTrTG26p7DFqB7+CNJvAhO/l2LQptgXxMQYuvDD8ubI8JFAvqSGCfmrG2PXA5pBnOqXRzu90vKR+4BmtvtkYOwuscmdODVIsaKiyWQWJnTthld+vSE1UkJIk9KeWrncEzY0iScdLaidspwUNKzE9DYODsa2IS6gxQYvpVEFKERWkZmhGkNLxkg4bY/e3+F4taFgRAxtL7CXNz8fLo8nzkI5VpuIrKxD6U0u3oAGaH9ZYfC/JryCNjMKQ3yHi3ilzHunCSN4RSPy5Ww0cjG2EdIIJkjF2EzAX6jwvNCtI6XhJdxhj+1p4n19BSjlcV6WseaSxcdjid4DHisjzkACuim2AdEJ+ammH66C1cfZpeEnjwM3NvMEY2wNs92NOhZQLGqqMjPrfjCqRCw7Hr4404kTp6tgGSEcFqRlaEaR0vKRmJzfsBPwOmCuChwTlC9t1dsJBAdEpeYUNxx20WRQaFaRmaHXhVxpe0qWVsGqj+A3XmQQnfC9H2cJ2O3fBgIDqQnlhuy7g8thGSCbIJ2aM3Q6kf3d55GF4/PHm35eGl2RobuCqX0FKccL3cszPSwwf+ePIBbEtyJEnSKB5pBUJ9Yml7x1VKbaX9BxjbKNG+l1sIyBcNzHi6EK9fYmXrzfB1GqY2xDbihyZP28qSCuggtQsrQpSGl7SLI3/wHgeGRS3oGHdFJxy+TcsSx5JincEUj2kWWNsoC2F6eH9E6s0g13i+5xgtCpIAKdOS31qW0jdniRj7CSw1qsVET2k7i541S3wtQZm6TZMGfJI3T2wr9Ueaw/IK2qool7SMoT4xHaTN4UVg3YWf42Oyqg+WpnrjLHTdV5T6Anfz74C5qbhi19zeNF168LuA4rB3r3Q2xvbiieRZMv5aPn3MoQQpOKE6wAef6y99586lZfFyqULuLPOawo74XvvJrjyKGQZfMmlIHV0woZ5hxcUiKRwHYRfedE4FxljxRoXExWkZnmshSq7hYyOwgHxXlK9nqTdXk+PVADQ2QHPrTy7fv1b8PA5xwcUOWw3uw7W+I3iNs2QgNLz2vSQ+hg1T3gVJGNsB3CxzzOC00rZ92Lke0nbjLGnVvjznV5Pj1TQcMWRvJgB4Iv3eDhg61YPFxWCNO8IpE9a17BdDXx7SPvxvS8nNC4EKX0vaZfXkyMUNAwPwG2XPPlrp/mjKqsmirlFtr8fdu+JbcVS5IbsQAsbauJbkM56vn542s0hVZHvJd1qjF3SiWOMXUM++84PkSZ833YpDPY/+WsvggSwz//GjuAcOABdXbGtWIrckB3AvDF2R2wjpOFbkK7xfP3wuPCQIAUvaYDa22T9husieEdjQ3DZovVp3gRpzx6p/TEtYuCwwHAdSA/ZgXpJS/D2k1EZInjS1/Wj0W5Rw0Lke0m1epL8husiFDRceQS6Fn0M3gRpcBA2bfZ08Qhs3AgTE7GtqI3skB2oIC3B56Pa5eQlxMXClYcEKXhJFxhjF8eYPAtS2IKG7i64fNED/gMPwX33ezx0f4HCdhKLGarIDtkBXGyMHYhthCR8CtK1Hq8dD1c5pCrpeUn+QnamA2bClg6f3gcji+5b33rA86HbdxSjSXZoOP+7SEV+yK4PuC62EZLwIkiVcUHFLGt06SFBCl7SHcbYhS3v/jyk1avz8TMBueb40t9z3n+0mO5u2Ok3FReEQ4dk58M6u/LBtrK5I7YBkvD1bToM1Bs/kyYuc0hVZHtJq6hskzXGrsLn5zobdkPJ/s2wvsZQK++CBMWotjsgaG7dcsgP211ljPVXtZoYvgSpeNV1VVx7SJCCl1TtSfL7WB+40/+6E7V//5EQgrRxU5TydmfMzcF4Ai2G8gsbeoBbYxshBV+CVMz8EfibIHzqpORJ4GeMsRvxXdCwdo3Xyy9k3RTsW6bYLYiHZAzsFdhM2ij7xa9SyZGfRwIN2z2B87urMXYKEFx60ya+tpiOjkmuvqpuk/UnSMbAdDhBuvb48vNbg3hIIGtVQzN0dcFuv88mzpAfsgM4ZYxdH9sICfh43L/a03Vl0OVxrfbJU5JXXT8Xn4I0MRlsZfnwwMrL94J4SABr1uQbVlNjx44UigVy5IfsIH/gq9WEXjp83P2Kmz8CvzfNVavyTn6ZzAL+El0Bw3VnD0PPCh9jMA8J0ixuSCVcBzCUhCCBhu0Ax4JkjO0CrnR5TXF0e+71PX0q2i6gBvC3NW9tuIKGC+sszwjmIUG+1A6xn/dShobTWqOxKoHCi5x9xli/a10SwLWHdCEw5viasvAdVpqcgp2JxOddEqjCbs0q2FDHGQsqSKOjsCWhUUL79koOKy9F6lij2pTeS3L9zSp2uA785pCqnD5NUk/NLggUsjvWgNYHDdkBXHhR4APbIKVwHcDIcLDcpAOeURkqUFpcC1Jxy72r+A7ZAUxPw/bt/s+RwtgY9PXXf50DjjfQSRXUQ4J8QGnAkGXLrF2bT9NICpNS2G6ePMpUWpwJkjF2DhCbkXdGqKet06fDnCOBQOG6yVHY3MAw8ShDMy5M4D60P9EydQ3bJYNLD6n44ToIE7IDmJmBLVvCnBWbUOG6BudMDMaoaN61O+9Fk0pHZ6UAI0HSEqTbjLHJxBhdo4LULCHj0acvDndWTAKFq443WCsSRZA6OuBEjUmvUti6BQaSaDJdSlqCNAFcEduIWDgRJGNsH3CZi2uJJ6QgrV+f5xeKToCQ3fgwbGuwF34oTDprKQcPBculNU2q4TqAVUkJEpQ4bOfKQ7qYfOV1senohL7e+q9zSdG9pMFBGPY/ZPTojsbbuwZiDSHo6ZG58K6/H7YlXGSTlocEcKMxNlF3tD1cCVLxq+ugMqgxcFXm/Hw+WbmoBArXNVLuXWUo5lSco8fyPT6S2LNH8nqU+gwMyPU8azMA3BLbiBi4EqRy5I9iTQ4ucsVdgHDd8ADs2tD46wdj3ruGhuQN2U05XFclPS/pxbENiEHbgmSM3Q4k1GreBrEmB2/eArMN1CunSIAKu6M7mltsGqWoYSEnLkRMY/TEJMyui21F+0wk04tU5bgxNrEu5PZx4SGVI1wHcScHF9VLChCyO9xk+iO6IE1OwrZtkY2okMJW2EZIz0MCeElsA0LjQpDKEa6DuLtVtm3P1xUUid5eGPe7vdkY2NlkCq6nO8xAjhW5SEKjrElzGnkt0hSkO4yxI7GNCElbgmSMHQZOObJFPrF3qxTNS1qzBt+hqbnVreWEolXaVZnbEL/kf/16GBmNa4Mr0hSkQeBZsY0ISbse0lnynfDlIPb2yZ07YcrfBojgBAjX7WyimGEhUSvtqlxxZdxVJLsLtA0hvV6kKqUK27UrSOXJH0F8DwkDpwrkJQWosNs139r7hiV01a1ZAwci5bWNgV0FWoPS0yN7NNPy7DbGliYK1a4gXe3EilSI7SEB7Nmd8tPe+Qj2kKalFGWdOQPdEYIQ6+eCNCwHZSaBieq1KY2X1LIgGWMPAjMObZFPdA+JfDnaqQI8MHV15dVkHpmdhNEWnyFmpGj+0DBcFGFfUpHCdVXWJnu7eqoxNrW9Hy3RjodUnuo6yGfYxWqMXcy+fTDmtzrNO6unm2sOaoFWvSOAtVIECfLVFMMBi62KFq6rkq6H1AM8L7YRIWjnjlCu/NG4lBgO+Y385MnYVrRHgHBdq/kjgLWCPm66u+GygLOLN2zIJ0YUjXQ9JIAXGWMT2h3fGi39BY2xE8Axx7bIRtrWyQMHYCThFoUAExra8ZDWTMQtcFvC/n3hbqhFDNdBPtNuNNky9nngqthG+KZVxb2qjfemySphIbLOzji5BVd4rrCbHoeJNvS6tztfWSEHA1deGeCYDthZwHBdlbS9pMIXN7QqKuUK14E8Dwng0OE0QyumA6anvR7RjndURVQeCfJQ2o4G1962yvwGOblSH6SbRwK4xhjr4Jstl6YFyRjbCQR4VBOGREHq6soT3qkxNZnb7pF28kdVROWRqlx+eb6XyxdFDddVSdtD6gBeGNsIn7TiIR0HJP6o+kVSUcNCLrggj42nRICG2EJ6SJA/GB33tOrcdOTTQIpM2h4SwPONsYWdjtOKIJWr3BvyfI3UZGh3D5w4EduK5vBcYTc+nOeQ2kWkIAFceomf5uiN8zBQ4HAd5H+/tOfzTQPPiG2EL1oRpPLlj8bGhZVcLeLI0bQ2YnqusNvkKCojVpC6uuHGG91/J3fvcXs9qaTvJb06tgG+aEqQjLGzQEEWpDSBtAq7xfT2wrFUqvCN9zUa844uPz3uvXe3debm8nXnrujogJ073F1PMmnnkQD2G2PPxDbCB83+uJUvXAf51kzpHD8GPb2xrajP+Dj0+h2l7UqQujqFFjZUuewyd7nNjZugP7FcZKuk7yEBvCa2AT5QQWqEAE2cbdPXD0ePxraiPgH+LV0JEsBWydu7u7vhxhtwslOq6NV1C0nfQ4K8BLzJXcjyaViQKpUdZz3aIpcAVWFOOHEizmToZvD8b9nfC6sdbhkQLUgAG+bh6JH2rtHRWZ5wHeR9VilPOckxwKtiG+GaZjykk0CCXZhtEmAqtTMGBvIycMl4rrCbX+M2179tvbtreePs2faG7W7alFZRjAtmZ2Nb4II7K2PcCkMzghRwuqMgVq8WnNmuwYUXem86bQvPITuX4TqA9VPQJ9zppLunvdBdmcJ1VeYKMfCgH3hxbCNc0sydtpBVHXVJJVxXZWgIDh2KbUVthoa975RyLUgdHbA5hYfp+Y1wweHm32c6YPs29/ZIZ0MhBAngZUVqlG1IkIyxI4DwWJAnUihoWMxFJ/NmXmkEWDnhWpAAtknPI1W5/Irmq+7WrytPdd1C1kzn7RLpsxZ4emwjXNGoh3QaEBwH8khqHhLkCdsDB2JbsRTP4t7ZCes97NVMRpB6euDWW6CziR/VbYUr1GoM0wHrU0gQNkRhSsAbFaRyhusCTKX2xsmT8nJfnsV93WTeO+Qa8ZV2C1k7A1de0fjrt5dUkKBIYbvCNMo2escqZ0HDxETe6xGAXtfHjI3nq84lEaDCzgcjgzAtuUF2MUeONraCfNWqdCpIfVAcQYKCeEl1BckYOwXsDWCLPAKVhnZ3wb7NHi588lTu5Umgrx/GHDYI1cCXIEFCYbsqN9xQP5+USLhu1FcdzMys7IrU5ihEo2wjd6tLcdIKniAb54Mc09UJR31M/Z+YkFPSm9iEhsUkJ0i9ffXzSYKr64yBIzvg9bfDgK/ag85OmE3tg12WQjTKNiJIhYhNtsTGjUGO6emCw9ug04czc/oUIp4nAhSH+BSkpPJIVVbKJ/X1ie3F2T0Pb3spvOY2+Iv3wt1f93hYscJ2yTfKqiAtx6qJYHtTurpgqN/NUrklTK2WsXTNs4e0agQGPQ4b2LAGBvzOhPXDcvmkLVvFFb3098ILroXvvxNmp+C33gUf+oznQ4slSMk3yq74jTTGrge2BrJFFoG8I8g9JPAUtgM4fdrThZvAc0GD791FnR2wJ9xXwi218knCwnXb18NbXwpXHMnDdX/3Afib/x3g4PXrxAlzmyTdKFvvkyindwRBBalaqnzEV0pyzRrYFvEG1NWV57M8MhMgULHfR+FJCHr74NZb88V+kN+At8h5zty7Cb7v2TBZCUjcdz/87n8PdHh3T5CG7YAk3ShbT5DKWe6NCVbQAE96SBOjsNnXZPyLTnq6cANMTnqv9gux3fXAFv9neGPt2txTgjx31Ccj/nhwK3zv7ee3Pbz9r+CBBwMaUaywHSS8UVY9pFqsXg0Dg8GOW1h5esTXFoC5uXgTjqc8jE9YRAhBmhqDmZTbdvbuzRumhYTrjuyA73l63vZQ5QOfgH/6UGBDiidIB1JtlF1WkCo17SmMlXRPwHAdQPeC6QLe8kiQTwKPweop70eE2uyabNiuypnLYPee2FZw4Z68im7hZI3HH4ff+ssIxszNIaIS1S1JekkreUhJKqwTNgUWpAVPiOumPD7t79zpvTm1Jp49pM4OmG5jHVAzJB22g7xiYHg4qgkX74dX3Ly0zeGfPwxfuTeCQX396Y4IW55rU2yUVUFajOkI7sJ3L+pdPOorbGc64PhxTxdfAc8e0tRYuOHmu+aXfl5K41x2GF5609LCtiyDP31PHJsA2JK667uEJBtlawqSMdaQT2goHzNr86qkgCwRJJ9hu4OHwia0u7rb22baACHyR1V6u2HHXLjzisTeTfDC62pv9H3/J+BzXwlv0xNsLpwgATw7tUbZ5Tyk/UBSfxFnBM4fwfk5JIAtszAx4umwnh44HHC11dSk253iNQhR8r2Q5PNIERgZhO+6efmvwp/9U1h7ljA3F2yQckAGgBfFNqIZlhOkcobrII4gLfKQjIGzPjXj2FHoCBTjKkiF3UL2p55HCowx8PKnwNgyQ1K//i346OfC2rSEzi7YMB/ZCC+8PKVG2eUE6WhQK6TQ2VmpuAlLT40Hs7OHPOZFhkdgT6BKqxAVdoEFacM0jMetC0iK606sXAzyr/+e55CiU7w8EiTWKLucIAlcNxqAdeuf7GYPyFiNlqfRITjewEqblrnwhMeLL6CAHhJo2K5RNs/C7XXa6//1I2Fsqcvmwrq+yZSALxEkY+wgOr8uKKuWyRdddcTjodNrYNMmjwdU8Owh9XR7zLetwOHkCmrD098Lr3rqyp7+N+8XEK6rMjkJo2EGKgfmgDH2othGNEItD2nvMr9ffGIJ0jLhn+1z+ZRpb5zw3Cjb3e2972nNKu81EzU5uAX6konMx+GF19XftPvBTwkJ11UpZrUdwMtiG9AItYSnnOG6nh5YF2cwxUr5CK9e0pYtfkNqU1P47oCPEa6D3DM7JGMCj0guPQgXNbBn+vNf9W9LUxQ3bHeLMVZ8968KUpWt28JVni1iuZAdwMl9MOizbeiEx1zSVHFGBtXihJBlvNKYHIXnXd3Yaz8nTZA2bfQ+CDgS3cALYxtRDxWkKpFWfff3rhz66e2GS3x+Ivv2wtAy9bjtEqCgYSJiyF/DdrW54yz0NvjvIs5D6uuHWV8j96PzImOs6Dkj5wmSMbaDPIdULnp6YGscV325/NFCqkvLvNDZBUc9VfkHKPlu5N/PFxq2W8qW2XxwaiM8+DB87T6/9rREcfNIs8CNsY1YicUe0jby7t5ysXVblHJvWDlcV2XtBOzzWRB3wRE/XeoBPKSYggQatlvMnVc2/vAkzjuqUtw8EggvblgsSBquC0yjDZZX+mxV7u+HA44/+p4eGPMfT4vdoKphuyc5sTuvDG0UsYK0bjb4PMuAXGqM9dnh2BaLBWl/FCtiEjFcB40/4R/a6rmi7PgJt3HBSf8VdsYsP44mFBq2y+nqhNvPNvcecQUNVUxHmB69eIj1ktRDihiug8ZCdpCP67/1Ep+GrILtDvdeBMgfjQ4uXWMQAw3bwdXHmt9JJdZDAthe6M7nZxljRQ6/UkGKGK6D5kJOF+2B9T7TMi7HCYXIH0WY0FCLsofthgfgqaebf59oQdq2TcbTjh+GgWfHNqIWT/yLV5qmfM4FkEfkcB00l5Q3Bp7ucw77+jmYXefmWgE8pNj5oyplD9vddgkMNJlyOfco3PeAF3Pc0N8Pc2EXdQZGZNhu4SNA+byjbXHDddD8U/6RHbDZZ5uEKy+pBBV2Cylr2G52srVVKY8/7t4W5+z0tbpZBDuNsRHWR69MuQVpV9y7SG9PazfVp9eZntwWO3bm6ynaoac3yJBKSYJ0aCsM9se2Ijy3n4XOFiJbj0uaX7ccLnOqMhG3lqK8giQgXDfb4jLV/Zthp69oQkcHHD7U3jUCjAwCOSE7yJcsngy0YkoK61fDBS3m/pPwkEZHYe3a2Fb45NbKMAQxlFeQBITrZidbf6/XXNKhw+0ldAPkj0CWIEE+ULRM3HBh650CSXhIADsK7SXNAKdiG7GQDgBj7AD5lIbyEDlcB7CujftaDAcqAAAgAElEQVT2zg0eV2kPD7dX9hogfwRyquyqbJqBOfHzlN0wMQIn2xgyloSHBHkIu9g8LbYBC6k+BpdrB5KAcB20J0jg2Us60sbei0AekqQcUpVLSxJnuPbEyov36pGMh7R6NYxHHCnvn1uMsXHWHNSgKkKFfww4DwHhOmhfkDbPwFFfn9zGjTDR4miIAB5SVycMCSwiOLWvvRt1Cgz2wdnD7V0jGQ8Jih62mwJ8Pto2RVWQHDWfJMLu+Nnnrs7mO9trccfZPKHuHgMXtFDP29sHI/5jaePDcTbF1mNkMK+4KzJXHGm/ETgZDwmKXv4NgqrtyidI/QOwNf4dY+2Em0bwtRNw08n2r1OTAwea9yQDVdhJDNdVOVPg4obuLrjmWPvXScpDWrceBgdjW+GTpxhjRcwaKZ8g7d0jIqbSbrhuITed9DR4ta8f9jTpTZa0wm4hB7bCaOShr764eL+bv1tSHpIxRZ9tNw5cEdsIKKMg7ZeRdXYpSN1dcNd17q53HkeaDNuVtMJuIZ0dcHpfbCvcYwxcf6Gba/XGT+E2R7HzSCCk2q5cgjQ1BTMy1hO7FCSAPRvhtI/lITOzzf2bqYcEFLMn6ehOd5742FBis0s3bcqrc4vLNbENAOgwxvYBPjftyGG/nHVP7TTFLsezr/BUeXZBEyXgoTwk4YK0bipf510kbrzI3bU6OvL1IcnQ2QVb4ueePbLKGBv9G9tBWbwjY2CfjDhKR4efnM/IIDzzcvfXZc8e6GtgnHNfX95UGwDpggRwps0JTJLYus69wE4IDrvWpPhhuzZand1QHkHatKn9oaGOmJ30Vaqdh4p2NLFGuiG6uxvLvQXyjkB+yA7yniSJvVKtcJkHcZWcB6zJtq3QEb8gyiMqSMEQUswAfkM5xsALr/dQSNhIcUOg/BGkIUi93XBZmw2kEujrgQs9tO6l4OWeR28fbJyPbYVPRAiSjCy/T3p6RTW3+c4trJvKB186ZWIyn96wEoE8pP7e/H8pcNXR1tYzSOKivX424ibnIUHRw3YiBCnFr0Vz7N4lYlRQFa8L9irccjFscL3/t15xg1bYLWFiBI7tim1Fe/gI10GCHhJUdiQJHBHihp3GWE/JhMboAArawrcAQeG67i7YEGAidHcXvOqp+XptZ+zYAUMr3EUCeUgpCRLAteL2cjbO3LQ/jz5JD2l4GGajF6P5oheIWkpYfEEaG4cNrrP8rTO/JtygiNkpuPNKhxdcaXlffz8MhfkqpfZkvXVd/r8U8eUdQXqf4xNo2M4bHUCqX4vG2L8fSS52iHDdQi6/AI64/Pk5dBhMjaRIwAq7FG9k1yToJXV35ZWCvkjSQwIVJI8U30MS1AwLsDmCt/+SGx3+8I+M1J7rNeWh03cZUgvZARzflV7fzdGdfsvW+3pgMMWy+MnJvMinmKggeWNuDsYd7HhwSIzu/aF++K6nOFzXUKsEPOASsxSfrDs74Mqjsa1oDp/huirzrgtvQiGoatcxUacHFFuQBBUzQF6qPBNpSNPujQ7XVGys0WQcUPhT9JAgX2rntMjEI9OrYPe8/3M2rfV/hheKG7abN8ZG04Ti5pC6umH37thWnMemmbhL5W671JGHZky+xmMhAQUpxRwS5J7qxbIiyMty5mCY72qygjQ7G2xMVmAMEG2DaXE9pB07oFdW92TsYZudHfDKpzpqKl08F3B8zMFFGyNVDwngagfL7XzT0QGXBAoubEq2Ld/Ajp2xjfBFtDxScQVJWDEDxBckyEMxL73RxYXWPFlZ19eXL/MLwEBfvv49VdZNwf7Nsa1YmZ0bwon+mlXpTN1Ywh5ZERiHRBWkhH+8l2FoGDZvim3FEpwPPW2RY7vgKaccXGhf5XsbMFw32MDQcelILwE/HvDB3xjYmGrYbm5OzMBmx0Rrju0AzsU63Bv79tXulYnI7KSs/S9PPwMH2/3a7d0LmKCCNFAAQTqwxc8+LBcYk5d7hyTZPBImH0tWPALMkqlNB/BorMO9cUBeuG7nhtgWnI8x8Iqn5iGTlhkdy58Sx9RDagZj5OaStq0Ln6NL1kOCfFdY8VBBcsbamaBTAxpFmiBBfnP/nqe3Ocl5314N2bXAxQdkNoUej/DAn25hAzC7DsbCFfQEYrUxNko9cPFCdgKLGQB2CRQkgPWr4WXtNM3u2g2rwjXFFiFkB/mupLMCN8qGDtdB3pvnY71FMIS1lzigCwj3Q72AYnlIHZ2VvIYspsZgYjS2FctzbCfc3GqRQ38/rA7nkQ6kWpFVA2m7kjbP5N/V0CRd2ACwW8N2riiWh7R1KwwMxLZiCVK9o4Xcdikc2tbimwfDVWsUJWQH+UNKDI9kOWLubQo9dNgpa9fCqkgjWPwRTZCK4yEJLGYA2DUf24L6GAOvuDkP4bX05kAUSZBA1q6kGPmjKrvrLCMWT/F6ktRDaov+Adja6iO+XyQWNNRioA/e+EzZU6mLkkOqsm29jIbpDdNtVly2ya4NssKXTVO8sJ16SG2xZ0+4zXdNMD4c9we9WSZGclGS6olItasdJHhJsdes9/fGWc3ijNWrYWoqthUuiSZIj8Q42Dn75BUzQDre0ULWr4bXPSNf0CaNIgrS8V0wGbno5ZiAXNbe1MN2xfKSovTOdABfj3GwU4aGYJ3MHdEpChLkdr/i5rjTyWtRtJAd5I69k1FOLTI72WLu0DF75E37ao5i5ZGieUhfiXGwU7ZvR9Ka8oWkUGG3HMd2wXOvjm3F+RTRQwK49GA8Lyl2uK7KtnXp7IuqycQkrEl14+ASognSV2Mc7JTtMpdlDQ/k052bRdLP5FVHHS72c0BRBakropckIVwHeYhYygDililO2E49pJbo6YFNMoPPO+ZaC3kNApLyu7eflbFYzpiEVxU0QAwvaXpcVlNq+nmkwoTt1ENqiS1boVNg9p3Ww3XfJF9IImm4w4tvhP1b4trQ15MvjysqMbwkKeG6KsnnkcbHYUbS42TL9Bpjg9+C0veQBO+2b6eg4R7gIkCKQ9DZAd99W9xBmEUsaFhMaC9JSriuyqa1MofONkVxihvCTU2ukLYgdXTm44IE0t8L823kN+8mD92dQE65Rl8PvOGOfOtsDIqaP1pISC9pYkRGU+5CjIE987GtaJPdu5HzU9sWweMRaYfs5jfk67MFsn19e+GlrwCPAVPAQUc2uWB0EN70TBiJsGywDIIE4bykY7vklfVDAcJ2I6Owfn1sK1wQRZC+Bjwe+mAnFDRcB7kYVZ8UNgOSfkbXrII33A69gVcGlCFkB+G8JGnhuiqHZU4Aa45ihO3CC1KW2cfJRSk9hJZ7g5v+oy8t+O+DgKSt15tn4TW3hp0/VhYPCfx7SWNDckusJ0cTX9oH+Z4wie5nc0TxkAC+HPrgtpmZgRGZU0B7ut3M5bp7wX93ABcCkpZrHNwKL7oh3HllEiTfXtKRHbLvl0flPms2xtAQbEi4Kz4nmiB9IvTBbSPYO9o6m99Q2uVB4BsLft1LXnknaYTsJQfgGZeFOassIbsqPr2kmKsmGkFqOLEp0m+SjSZIHwl9cNsIzh+5DIXcvejXY8BRd5d3wlNOwTUBJlaXyUMCf17S8ID8HV2zUzAjKUbdCjuEu6H1UUFqiKHhoGuzm2WbwwKbL9X4vXWAtAfIO6+EU/v8nlE2QQI/XtIF29PYPVSIsF3a1XYqSA0xIzfjaUw+JNIV3wAeqvH7ewBJ/wrGwEtvhAMepzmULWQHfrwk6eG6KpLWu7fMzqT/EtEE6WNAFvrwlpkRNHxrETOT7jvNa3lJAMcASWUdnZ3w3U+DrZ42gZTRQwK3XlJPN+xJZF7c5hnZ24sbQgWp+QOzzH4H+Fzow1tGsIe03YOHvjiPVKULOAkEbgdakd7ufJrDrIflmQNS5igFxqWXtHNO5uLFWhiTVwMmzegYrJV7v6pDNA8JUgrbCf6AfQhSdWpDLaSNFwIY6ofvexZMOM59lNVDAndeUuwBuc2iYbuoqCDVZXgkTxYKxWX+qMrCqQ21WA0ccH9sW0yM5KI07LBxqow5pCquvKT9m9u/Rkh2bsgfcJJGBamlA9MQJMHhusF+f6Wq9TqXtwDSUgOzk3n4ztWIoTJ7SNC+lzQ+LGNVeTN0dsDh7bGtaJPJSZj0EMP2T1RB+mjow1tCcEHDtnX+2g7ubeA1h4AJP8e3zJZZeO1tecFDOxR9F1IjtOslpeYdVbmwCGPhdiXpJamHVBfBHpKP/FGV+6hfBlkdLyQtwrF/C7z8pvbEuuzeUZUzh2Bti08dqeWPquzfDKNyo/SNkWbY7tHQBz4hSFlmvwZ8PrQBTSO4oMFlQ+xiHgO+3cDr+pA3Xgjgor3wnKtaf39PtztbUqazA555efPvMwb2SRoZ3wQdHXByb2wr2mTNWhgbi21FswQfur3YJXtPaAOaYmQUBiMs4mkAY/K+CZ98s8HXjQNHfBrSIlcfg6eebu29KkhPcmRH8+OpNq11W2ASmtOep4AEIT0vSQVpRQTnjyZH8y2xPvlG/Zc8wXpAYgvH087A2cPNv68nkd6ZUDzriuZevy/R/FGVjWvTK8hYQlqC9BjN3XKckJggyQ3XtbOuvFEa9ZCq7CUXJmncdV2+uqIZVJDOZ+s6ONFEst/nSKdQXLw/tgVtsn59PoczDe7NMht8es9iQfoQef5cJoLzR3PT/s9oVpAgnwwubWiyMfCqW5p74tWQ3VJuv6yx6sW+Hj/9caE5tS/14dlG9JaCRURZ2nqeIFW2x743hiENsWpVbAuWZUMAQXoE+E6T7+kgL3KQ9lzW3wuvf0bjeQ0JHpK0qvPpVXDFBfVft3tj+2X3Ehgfhr2JFmY8QTphu/iCVEFu2E5oQQOEESRoLajbA5wiX/AnidXj8NqnNbbMUIKH5GAJsHNuubj+BIsDieePFpJ82G5+HvqlNWbURAVpRTq7oFfaLTWntxvWBHLeWgnbQT7z7iTyysF3bshzSvWQMBB0HfJEfXgAbjq58mtSL2hYyNEdeQgyWTo6YHsSoyfECNL/BM6FNqQugr2jdavDxbZbFSSAVcBxZA1ihXwkzvUXrvwaCSG7CfKSemlce3z5Qbarx1tvpJVIb08B1ptv3Rbbgka4J8ahSwQpy+yDwPsj2LIyg3KbKEKF66D9OswZ5A1ihbzZ8/AKP6exQ3b9lf9JFKTuLnj6mdp/luq4oJU4nXrYTnD7ygLEeEggMWwn2EMKKUgPAg+3eY0tgLSggTHw8qcs/6Qf20OqOhkSBQnyxtFarQcSBGkb+QQRV+zZmPjivrFx6BM/C0sFaUUEC1KIku+FtBO2q7KPPCciicF+eMXNtcOfsXNIqxb9vzSMWTpSqLMj7nbYDvK2g3XAQw6vawycTH1yw3SAxsX2ECVI/4O8ylgO3QLKrJZhTeDHZleNYhJ7lHZugJtrjBeKHbKrekj9yCtsqLJv8/kDVLesi7dDqg+4FNiAnwGZyY8SWquCVIuagpRl9lvA34c1JU2MgbHATT6unjY7kdmjdOvFsH3RrLaYITvD+aE6qV4S5F5S1cOMFa4bB87y5L/TFzycsX51Pk4oWdaoINVipV6/Pw9mRcKMDeWhkZC0m0NaiMQepY6OPHS3cOVETEEa5fxyeal5JMjzmdVenRiCNEfuGVU7bb5Onvf0QdI9SWvEq6k4QfqzYFYkTIzkqst4PMjsUZoagxde/+SvY4bsFldNSxYkyCvuxof9T59fiCGfnXiM879HPvfZXLQ3/MOgM6Ym895KmdyXZbaRbTfOWfbjzDL7OeD/BrQlSYogSCCzR+nE7iefgmN6SItDdNIFadUI3HlluA27hjwfWWtK29c9njs6mO7SQTo6YbXYteYfjnVwva+sekl1WBVBkFyG7BYisUfpmVfkiXlJHlI/bsuYfXBsV5hzqmK03Hqmb3k+X8N2XvhQrINVkNqkSIIEeY+SpD7y0UG49ZJ4Zd891C76EPtsWyFEKKueGD2A/x3YF2yPV0nYNnILG8QK0vuAL4UwpC6PyKpCrxIjZPc4fmvy9yOrR+mqozAUaR7lchV1Ym8lgagnRhBmj013F5wI5A06R27pt0xBqixoklFt9+0oOba6xOoY95FHWshRloaqYtHZkRc5xEAFaSmNiBGEW6yW7Cih6cAd9Y0jNocEUsJ2374/tgU1iRGyA79hO8grpU6SlzxLoDdSDmk5Ue5DfnGDDxoVI/CfP6qyYy7eA0tb9PTC4FBsKxZzT5bZr8Y6vBFB+lvycHBchHpIY5G+T749JMjzJ6eR1zgbkpWaYMvoJR2iMTGC5pdJtooxcIm0apxGGRf3WBMtXAcNCFKW2YeB/x7AlpV5+CF4VN5WjFh9EL49pCp95KIkd9a6P4bIRXk5xNZIeWIz0MzCVt8FDQu55ECi681VkM6j0dvpH3u1olEEhu1i/RCE8JCqDAAXI7/U2TX1okCrWFmwisQUzbcEhBSkqbFEFxHKE6Ro+SNoXJD+lHA5yuURGLaL9VAWuuZwiNxTKssNGOrniAwgNi3tkAHgBI3fLKqEFCSAyw4FPtAF8gRJvodUWdr3R55tqc99LhYvuCWWh5RFOHOUvNBB7MATxzSSJy96Hqk6gLeVWYePObalHhdshxG5W2pqo4J0Hs089LzdlxENc/fdsS1YQpkECfKqs4to/mk5RRq5VRRdkC6gMWGuRWgPqaszwckNsgTpC1lmo0bCGr6vZJn9Z+ATHm2pjzBBiplEjSVIAKvJQzgp5pAbpdG9R0Uu/95K4xV1i8mI8x09czDCoe0wMixpyGpU7wiaf9D9HS9WNMrdXyburVipMkPej1JUUWrGKyiilzRIPr27VQxxvOjZqaW7tGRjYExME1XUggZo/jvzDmIqwsMPwb3fiHb8YjpK6iFVmSPvSykizXg9RSz/Pkz760hiPfcnV9wgJ2yXlodUWUnxd55saQxJYbuSCxLkfSmpb5OuRTPPrBPkHkVR2ICb6sFYA9pP7IZ+SRsn6yFHkP4ptgGteNVvd21EU9wtY9YrqIdUZTuwM7YRjmn2FrHBixXh6SEfruuCWILU2w0n24k3hkaGIH0uy2zcGgFaE6T/CsTrUP2SHA/p3KPwsLzhEVHYQ766ogj00PxkiqTSFitwAHfr7COusOJMSmG7YRHDuf6/2AZAC4KUZfYBYk5u+Pzn4JwcFfhapCJJSR5SlYPAfGwjHNBKinmYlefepcBq3Hp6MWvHNs/AhlSqTfpExBfTFKQK8artHn0UPv3paMcv5muRenUlChLkfSvrYxvRJq0GUFL3klxHuWKPmkqmuKE39r8UGfA/YhsBrQvSu4HPuDSkKT7+8WhHLyaWhyQVAxwj7Ztzq0W4c6RbBr8G9x5epM0sT3Bqb7xNw00R30P6UJbZr8Q2AloUpMrivl91bEvjfPzjSPERYgmS5EkJ1Z0585HtaJVWPaRe0p1t56MoJfYurcF+OJ7CNtm+6B6SiHAdtHdf+zVi7Um6/9tiihvuiSRI7faI+MYAR2huXYEEusgHybZKitV2q4FJD9eNLUiQSHFD/JBd+oKUZfYbxCwB//jHoh29kFgeknRBqnKYtKrvRmkv7DZDesNnfTkRfcSfDr9rA6yRXm3S0wMmWszjHHkKRgTt/iv8LLFiZ0LySPdEKmqQHLJbzEFgW2wjGqTdIS5dwKwLQwIxSb7ryBexvSRjUvGSouWR/iXLrJhFc23d1yqNVO90ZEtz3H033Be/ouDeb0EWQZJT8ZCq7Ad2xDaiAVxspE+poGOr5+vHLmyAfAJ4rM3ODRMvjyQmXAduHrR/2sE1WuMD7492dJXHHod7I+wNTE2QIC8rlp5jdtGiOE38kudG6CEPMfoktocEMD4Mh6S76PEq7YolSFlm/w74Pw5saZ73fwCyx6McvZAvfz38mSkKEsBu3Pe7uMSFh2RIo8JwDv+hXwmCBAmE7eIUNnwb+J8xDl4OV9/HOF7St78lIpf0oc+GPzNVQYI8dCdxj5rB3ZDUzcjvSQpREShFkA5ugVEXTxu+iOMh/UOW2dB7FFfElSD9IRCnDvt974ty7EI++KnwZ6YsSJAXOUjbpTaAux+IAWQXN4wQZtRRN/myw9h0dMBFe2JbsQJxihpEhevA0c9fltlHgF9yca2m+eQnoxc3fOpL8J2Hwp6ZuiBBXg5+OLYRC3D9AC253H0+4FlSvKRTkmPFj0cpVn5XjENXwmUI+VeABx1erzGyDN4ft7jh8cfhw58Ne2YRBAnyxtljyChjdy1IU8i5GS8m5LxBKf8Gm2dh7URsK5bhseCRs3+RsG5iMc7uA1lmv0a+UTY8H3h/rgoRCR22K4ogQZ5cP0n8hlIfSwAkeklDNL9eox0klH5XEbsn6dHHQp/4u6EPbATXD6Y/Q4xG2W9/Gz720eDHLuSDgQeQF0mQIC+VvpS45dI+ct4biD+tYDE+xgSthCSnRKwghfWQHibP+4vDqSBlmf0I8Jcur9kw7343MQeu3v31sGOEiiZIkE9JOIMfT6URfAhSJ/JKwH1OZqjFMGE9spVYOwFbJFabhPWQ3lkZ/SYOH6H7N3u4Zn2+/GX4aNz5dv8W0EsqoiBBXnZ95v9v78yjrKrufP85NTEUo8zzJCAlAgoqIioZQG3H2MHuTsckL532mR6Tl8RO2494FI3Js2P3M3krmkSNzIOAylgyC6jMQzHIJPNQCBRUUfOw3x/7Xiig6ta95+yz97m39metWkupc/feC6ru9/72/u3vF/2fqlW2fF/LjYSrBVx3hQThckG/Z4jpFdSB3grJXJ5dAygXJCHcDZiyE1q1CpNVks5zpDA0AQRFFnAfwbsI1EZly/e1ZANdAho7UZoSTCXYEGESpFE3yzbwUKGvQvoSU7tYcRDUP8vzAY0bm/zT8Lm5s6S8Q/p87VK1QoqSDoxCX3xF0G/SYWlu0L1dF6WjoXnronULuCVsuSj6KqRpYbsMW5tABEkIdwvwfhBjN4jBKqmwGHZqytFNdUECuc01HGk3FDRBn1t10jBHPJjYrgMZXujXSV0lobuTpK9CCu12HQS78/M8JpQhPx/2mKuSFq/XM09jEKQoOcAIgj2H0bGNNVDDHA1hqkKCcG3b3TEImmSaXkUt9FRIO4Vwt+qYyCuBCZIQ7g7gvaDGj8nqVZiqkjbvgzMa+lfCEeCujz4Ee1dJhyD1wmy3WRZmL6mGSZCaZsGIMHxCiKKnQgp1dQTBn427gP4bq/n5sGeP9mlBniEt0eCfG9pN4ADpDHyNYMRDh1CkYTYTytR2Xe35w1TZjw5Tt11V4L/R1cDUoCfxS6CCJIS7G5gZ5Bz1smyZCTsOAFZuhfKKYOdojIIE8tb/11B/SK7L2rIP5sxGTQtSegjWUJth/aBlGC5IVVVBZWXQsywVwjVjgJ0AOpofX0Cqs17On4dPPtE+LUBxGazeHuwcjVWQQG493YuMeFA5pg7SMHeWZPL8KEqYtu3S0+EuHR0zDVFQgIZN+FBaBV1L4IIkhLsXU6XimjXGnMAXB7xt15gFCWSDw22RL78/xOkKxkiEvuiryKKkEY4utzAJEoSk267gfNAzFGKq6zlBdP0evoiJ99DKSsjN1T4twIkvg70o29gFKUo/ZLXkp8LR7TWXjsyD0kk24bhM3Qb9YhyLAT2gg2mlPh94F9RUIVz9SQwe0PIzKoR7EFMl457d8IVm59MIQVZJge84JxEdgK/jvYPMhPnpjZrnDcMdqChhqpIcB0aZDu4LtkKqAl4NcgKV6PzQNBFT76OLF0GN/mOsLfsgP6CfNVshXU3UA8+L3ZAJQcoA+mucL0zp3TotoeJhmMrDSC8EWyFNE8LVdF3fP9oESQj3MPC2rvmu4uxZ+Owz7dMG2QJeHsywSU0GcDfS2SGRS7Sm4iFuREZ86yBMgtSFcGwfRhnQA7JMXpINrkKqAV4JavAg0P1z4QKXNM8pWb1a5iZp5qNNkB/AB6BQeseHhBzgHuIXGlOClIXaTsFYhGnLLoNwbdtlZsBAnRG6tRECLlwIavQ5Qrhmg+ISRKsgCeGexpRiV1TAR/obHCqr4J0AvHUD78tJcjoBY4G2cTxrMkBvoKb5w1QhAYQtkmhwH0MTF16E6sCOE14OauCgMFE5vwYcMTAv7NxpxMFhyz7YqPhzSmnky1I/zZHnSg0ZO5sUpCxgUMBzpBOegLwoXQlXRpQx9+/gzo/mC+EGfBtSPdoFSQi3DPi57nkvs2A+FOvfNXxnMZQrbumwVVLDpCEdw2+nftsa0xHjNxJsBRO26ghk63eYXBv6doHmTQ1MHNz5UdJVR2DobFEIdwbwqYm5KSmBDz/UPu3ZizBntdoxrSDFT29ktVRXKqzpezFpQJD3M8MoSBCubbu0NMjpZWDiYCqkZUK4mnIH1GKy2eXHmDKt3rcPtmzRPu38T+WFWVVYQUqMNsj7Stemt5qukAC6E1xsuxWk+OhhIkXw9OkgRk3K6ggMClJEwaeZmp/cJXBBb69adTX8aZG68WynXeJkIWMsareGh0GQAIYGNG6YOuxq05z4mk500a6V5gmrquCI8uP0dUK4q1QPqgvT1wH+HVNn8xUVMG+evszxCLsOwdo8NWNVYkXJKzlIYcoiPILUDlkpqSasFRKEq0pqpzss6sgRqFLuFfCS6gF1YlSQhHCPAf9pbAFHjxpxBJ+UC6WKbrYeVjNMo6QzsjU8LIIE8ixJ9S+lFaT4aK+7Qjp4QPWIm4Vwl6geVCemKySAXwMnjc2+cgWcydc65YVLMGOFmrGOYiLbI3VoTrhC41ogu+5UkYG5/KV4aEV4thS1V0gHlLsvJ+3ZURTjgiSEWww8Z2wB1dUwd26Ql9PqJHcjHFZwnlkBnPA/jCVEDEJd1Rbm6ihKWKqkFs2ka4MWigrhyzMqR9xFkkRMxMK4IEWYBGw2Nnt+vvaYipoa+O1cNcmyygt/i1GygGGKxrKCFD8XL+xs0QAAABkfSURBVElnFS2or45+IoRrpmtZIaEQpMhf5I+NLmLjBtixQ+uUx87AG/P9j3MOCH02sSUheqHG7y0s22GxuIFwOEmo2LGIG7XnR7OEcM0EvykmFIIEIIS7BphjdBEL5stqSSPr8mChAiPyPExd6rIExXD8n28lQ4UE4Yik0CZIQqjMaCvE9Id5hYRGkCI8i8lkhcpKmDkTysq0TjvlI9jj8zrCReCYktVYwkI28r6UH5JFkIJod0+UQ7oE6eRJKFV222WCEK65pjDFhEqQhHC/QHbdmaPgPMybi856o7oG/ms2FPhMx8jDBvelGgPwd3k0GbbsQPrambZw0lYhqduu2wL8P1WDhYFQCVKEXwL7jK5g3z74+GOtU164BK/N8tfsVwLoPQWzBI0DjMCbM3Ym5t/k48XB7LZdeQWcOqdpsv1KBKkGeEYIN6VufYROkIRwy4FnTK+DVauCuLgWk73H4F2fR5MHAaXNpBbjtEFWSomSLNt1UUx22x3J12TacvYsHFeyuf6GEO5GFQOFidAJEoAQ7kpkK7jJRcCcOUGmOdbJkg2wxmeZswm7dZdq3EziApMs23VROiEv8ppg/3FNE23apGKUfEze3QyQUApShJ8gO5rNUVoKs2ZKE0SNvDkfjvjYzy5Gbi5bUod0YBSJdd0lW4WUxvVO7LpYpSPKrqoStm9TMdL/EsK9qGKgsBFaQRLCPQv8zPQ6OHUKFi7UOmVFJfznTCj20YhzBFAcUmsxTGvgtgSeTzZBAjPbdgdO+PsAGDc7d6ro4M0VwjWXkhAwoRUkACHcdwDFsXYe2LYVPlmndcr8Anh9rr997TysrVCq0RvoE+ezybZlB7JC0v2mtEyXR4z/7bqTwHcUrCS0hFqQIjyDtGwzy9JlsGe31im37odZK/2NsQHQewpmCZpbkY0ODZGMFVIGoDMnr7Qc1u3UMNHRo3DC18fDKuCvhHBTumcp9IIkhPs58CvT6wABc+fBCV2nn5I5H8NCH2HvVcBa5HVuS2oQPU/KjPFMNuGK1UgEnYK0Nk+Nn2SDrPT5yRKeE8Jdq2IpYSb0ghTB/N0kkIeS06drT5p9NxeW+qj2S4FV2DC/VCIbuCPG94OKQ9dBe41zLdfR/XPkMBw+5GeEDzGZG6eRpBCkyN2kH5peBwDFxTB1mnZ7oT8thJVbvb++HHkY96WqBVmM0xXoWc/3btC5EMW0RU9G1aFT8IUO0x1/1dEh4Lup4OQdD0khSABCuCswfTcpytkvZTt4jb5L0kLAGx9KM1avVAJrsM7gqcQw6nZjSOYKKQ096/9IyZWgBjh0SEaVe6McGC+E22iOgZNGkCKYv5sU5dAhmK8gOyIBhIDfzYP1e7yPUQ18gkyatSQ/TYCh1/xZOvE1PYSZDgGPf/o8rFJyJSgGQsDyZX5G+LEQrrmcOAMklSCF5m5SlG3btHveVdfAf78HW3ycqNUgu++UR4RZjNAL6Fzr/9uQZL/YdRD0OdLUZRpCojdu8NNZN10I9/cql5MMJOPP7Z8Jw92kKCtXwk4f+2geqK6G38yCHT4URSDdHOzl2dRgOFdsd5J5uy5KO4J7c9p7DNYHfYPj4kVYvtzrq3cBTytcTdKQdIIUOdx7BpO5SVch4P0P5D0DjVRWwasz/Oco5WEdwlOB5sDgyH+ngiCl4y92IxaTPwpo4NosWAAVnvrJjwEPCOFeUryipCDpBAku300KT0pidRXMmA5n9N5ZK6+EV6b6N4bcC2xGbuVZkpcbkWKUCoIEwWzbfbYb9gWdZJmXBwf2e3nleeB+IVy9lx1DRFIKEkBkfzU8nk6lpTB5sgz400hZBbw8xX/76hfASqQxqyU5iWYnNTO9EEWoFqTqanl2FCiFhbBksZdXlgIPC+H6aFlKfpJWkCI8Dej184nFpSKYNAmK9PoilJTBS5PhaL6/cc4DH2E78JKZVqYXoJBsxePlboT8ID8vVlfDrFlQUpLoK6uAJ4VwfXiypAZJLUhCuMXANwnTB/sLF2DSZC8/lL64VAoTJ8Fxnzdfq4D1yC48m6lkMYnKSq+4TNpwBcqSxV6txZ4Wwl2gejnJSFILEkCkxP170+u4irNfwpTJUK637+JiMUx4G3b5cimRHAGWIqsmi8UEWah7g5q2DIqC/Iy4bZtXN+/nIqkGFlJAkACEcKcDvzC9jqs4dQqmTZP+dxopLoWXpvizGYpyCXmutNf/UBaLJ1RUSXlf+POCbJBTp2ChpwLndSHcV1QvJ5lJCUECEMKdCLxueh1XcfQIzJyp4Qbe1VRXw+8/kAe4fvKUQHbe7QA+BvS691ks0lnED6Xl8nchMAoKYPo0L6nSM4EfBbCipCZlBCnCjwhT5x3AgQMwdw4I/U3VH6yF12bLBFq/5CMbHqwPnkUnfpMhJuXC2aDCvosKI01MRYm+8j3gqcZimJoIKSVIkX/g7wGe+i4DY/fuiO+d/p+/9bvh+XfgSwX2jOXIbKVt2DtLluCpxt/P2fYDAcZLlBTL5qXEo2j+DPy1EK7evfwkIaUECSDyD/1NZARQeNi6FXJzjUx98CT89PewRpElw35gOTb0zxIsfqwKSsqkO34glJfB5CmyeSkxXge+L4Srdw8/iXCE30OGkOI4blNgOvC46bVcxX1jYMwYY9PfMwR+8BA0qyuzIEHSgYHATejJr7E0LvYjq3Ev/P4DNY0911FZKS/AH0v4tt5LQrgTAlhRSpFyFVIUIdwyZKX0tum1XMXqVbDCs+mib9bskNXSXgX2KdXIW8m52LMli3pOe3zd1v0BiVF1FcyY4UWMnrViFB8pWyHVxnHcXwH/ZnodVzHsVnjkEUgz85kgLQ3+8l75pWoJXYFbkUafFosfaoD3SbzLrqhEfuAqSLjPoKEF1cDsWfB5Qv74NcA/COG+qXg1KUujECQAx3F/DLxKmHaX+g+A8eMhM9PYEnp1hu8/CIN6qRkvHRiE3MpL2fLbEjhnSDxjRgj45RTYrjzoS8C8ebAjoUPYKuB7QrhTVa8mlWk0ggTgOO4YYAbQyfBSrtCtO3zrW9DcbF0x+hZ4ahy0balmvJbIaik8f9GWZGI7kGgG5XurYdbKABazcCFs2pjIK8qBvxLCDfIGVErSqAQJwHHcLkhRutf0Wi7Trh18+yloYzZ4ummW3MJ76C7IUFRH9kBGbKeKA7UleKqBBSR2BynvC2kwrPztbNkyWLc2kVecAZ4Qwl2neCWNgkYnSACO42YALyPj0B3Dy5G0aAnf/lvo1LnhZwOmSzv4Hw/CsBvVjJcB5AADCMtftiXMHEGa+8ZLQRE8+4b0clTKmjWJNiDtAB4VwvUZm9l4aZSCFMVx3AeB3wF9Ta8FgKwsePBB2fAQAkYMhO8+AJ0URXe2Am4DOqgZzpKiLCd+U9/qGnjxXf/JydexYQMsXpTIK94Hvh1JILB4pFELEly+r/RzZBdeU8PLkQwaJDvwmpnvV8vMgEdHweP3QBNFvRe9gCGE5S/bEiYKgEQy9KYshQ9Vb45t3wbvf0ACziovAxOsFZB/Gr0gRXEcty/wf4GHTa8FkFt4jz8G/RTtm/mkfWv4zv0wMkfNeJnAzcjYbbuNZ4myAbllFw+b9sKrMxSfG23aCIsWxTtoGdJ5YbrCFTRqrCBdg+O4DyOFKQTbeA7ccTuMHQsZ5lrDazO4D3z/L6C7on231shqyfzJmcU0F5DVUTzvSPnn4ed/lHEryli1ElbH3Wx+EnhcCDeh9jtLbKwg1UHotvHad4AnnoAuXUyvBID0NHjgTtmR10JR+1wH4BagnZrhLEnIGuJzZygpg/94C074TEe+jBCytXtz3KFJm4DHhHBPKlqBJYIVpBiEahsvLR1Gj4bRd0NmlunVANIP74E74OG7oKWi466uSGFqpWY4S5KQj8zcaoiaGnhlmnTyVkJ1FcyZA3v2xPuKd4EfCuGqrM0sEawgxUFkG+9F5F1Ps7RsCV/9KgwdBk44Tl+aZklhemSUGmFykI0PN2NtiBoLS5Fbdg3xzmJYvF7RpOVlMH0GHDkcz9OXkEI0RdHsljqwgpQAjuPeC/wr8BimLYg6d4Zx90OfPkaXUZsmWfDA7VKYWmX7Hy8N6Ie0IlJgTm4JKQeBeGKLlm6CP3pKCq+DS0UwZQrk58fz9Fak88J+RbNb6sEKkgccx+0N/BPwA+S5vDkGDICx46B9e6PLqE2TLBg3Ah69G1orEKYMpDfegMh/W1KHS8jqqKEA8J2H4OXJ8t6Rb86fkxESF+JKrXwd+JkQrt/wWkscWEHygeO4LYDvAv+CfL80Q1oaDB8hc5YMe+LVpkkmjB0Bj90NrVsoGA9ZLfXDGremAgJYCZxr4LlT5+C5PynqqDt5EqZOlYmvsTmHbOkOKubPUgdWkBTgOK4DPAj8CBhrbCFZWXDbbTByJLQ264tXm6xawtRGgTBlI8+XemLvMCUze4CdDTxTXAbP/VGKkm8OHoRZM6GiwWJnDfAtIdzjCma1JIAVJMU4jpsDPAM8AXQzsoi0NMi5GUaNCk2rOEjXh6gwqXAVbw0MRnbmWZKLAmAFMjCoPiqrZJzErsMKJtyZB/Peh5qYCUs1wEvAizZm3AxWkAIiUjXdCXwDKU5mLBd694G7R8GN4fFEyMyArw+XwnSDgv7u9shW8fCcolliUYr0q4u1A1dTA6/Nhg1xd2PH4LPPIDeXBq7cHkBu0a1RMKPFI1aQNOE47mCkMD2BTGTQS4eOMOouuGUIpIcjozAzQ+YwPTJKjfNDF6Qwme0yscSiEnludLGB596cD8s3+5xM1MDSZfDpJ7GeqgH+G/jf9m6ReawgGSBy4TZaOY1E5xl9djYMGSIdxTt21DZtLBxHRl08fBfc4tOwyUGeLd2MPGuyhIca5OHMmQaem7EC5sZzSzYWJcXw3ntw6FCsp/Ygq6LPfM5mUYQVJMM4jtsZeBQYA4xGZtrpoWtXuPVWGHwLNDXvkATQu7OsmEbd7K+Qi16uHQQo6KOwKCAe49TF6+XlV1+cOA6zZkFhYX1PVAGvAi8I4Zb7nM2iECtIIcNx3J5IYRoN3IP8sB/s4U9GBtx0kxSnPn1D4QDRrhU8eKc8a2ruQysdpMIPwtoRmWQXsLuBZ9blwetzfbp3b9oIS5ZAdb09CduRVVE8d3EtmrGCFHIcx20LjOKKSN1OkMYFrVrDsKFw8+BQbOk1awJfvRX+YiR08NnJ3h0pTOFpiG8cHEK6kcZi+wH41fRYOtIAVZWwYAFs317fExXI3KJXhHArPc5iCRgrSEmG47hNgBHA3UhvvaHIS7nqOxXatYecQZCTA53Nto+npckspkfugn4+m+m7IoXpBhULs8TkNLCW2P1tB07AC+9CuVcvhILzMHMW5NfrFf4p8LQQbkPXniyGsYKUAkTiMgYjxan2l7qGs7ZtYVCOFKhu3TDZQj6olzxnGj7A3+5iJyAH2y4eFBeQHXWxbIFOnIVfvA1FJR4n2bcP5s2FsrK6vpuPjJCZZNNckwMrSClMxHPvWpHqi181adVaxqwPGgQ9esjyxQBd2snOvPuGSjcIr3RACpP5DcrUoQDZURerY+BcIUx4C8421ANeF0LIQL2P11BH/VUF/A5whXC9jG4xhBWkRobjuM2Ql3QHXvM1AC/HK1lNoE9v6NsP+vWV23yaadkcxt0uncb9eOa1QwqTTa/1x2nkHlmsyuhSqayMjnsJ2SstkRlGBw/W9d1VwD/b7bnkxAqS5TKO43bkepEaiKyq4qtBWrWWwtS3H/Ttq9XsNXrR9uG7oIePcqctUpisJVHiHAI2E/vMqLwSJk6Cfcc8THDypGzpvnidU/cJ4CdCuDM9jGoJCVaQLA3iOG4G0BspUP2v+epJvQ0VDnTpfKV66tkT0vUESAztJ4VpqA/DptbI5ofuhMV0KdzE09pdXQP/Zzps9ZIstGkjLMmVKa9XqAD+C5gohNughbcl3FhBsvjCcdwsZAV1rVD1R14BuvJenpEJvXpCv35SpDp1JOi3+h4d4aGRcM8QWUF5oSVSmKy7eN0IZFv34YaeE/DbubA2L8EJCgvhww+u3aITwEzgFzY4L3WwgmQJjEj3Xz+uFqloldWV7BZyWy+6xddSgQV4PbTOludM99/uPc22BXAT0gHC5jFJqpDnRfU2XNfirYWQuzHBCbZtkxddy6/qonsfKUSJSpsl5FhBshjBcdxsZHPFFbHq1m0oPXv1p0f3lvTqBc3Vu9FlZsC9Q+Chu7wbujZHClMfGrcwlSHvGBXE8ezMFTAnEX+6S5dg/nzYt7f2n+YiTVAbumdrSVKsIFlCh+O4rYAccnLG0r37V+jQMYfOnTvQooWy93/HuXLONKSftzGacaXjIxz+6fq4AHwCxHNos+BTmJSbwOA7d8KihVB62Xx7NVKI1ia4TEuSYQXJkjQ439x5J02ajCc7+z7atLmJ5s2V+Kb27CSFafQtkOFBWZogS7x+QJaKBYWcfUAescP1oizbDH9cEKc/XUkJLFwAuy+3RqwHJgjhLvW4VEuSYQXJkrQ4Lr0QYgylpQ+RkXEPWVm+rhC1aQH33wHjRsi7TYmSjtzGG0BqRl+UARuJ77wI5BbdzBVxPvz5HulFV1wM0gB1ghDufA/LtCQxVpAsKYPj0g24F7iP6uqvk57uaTMuK1O6Pzw0Erp6uOfrILPrb0LeaUoFTiPjI+LJahAC3loEH8XTwFBWCosWQ94OgM+BXwDvWaufxokVJEvK4rh0RArUVxBiLI7TP6HXO3Brf7mdN7iPtzV0QPo1Jasw1QA7gHj7qiur4PU5sD6e6PH9+2H+h1BU9AXwAjBVCNer37clBbCCZGk0OC7dga/V+orbjKF3Z9mZN3qwt+DA1khr9vYkz12mIuAzZANDPBSXyUuvexpK4SsshGVLIS/vODAReMdGQljACpKlEeO4DAK+jhSnMcThjt62JTxwB4wdAS2aJT5nU+QZUz9Aj2eFNw4iD3LiLVcOn4bXZsHp8zEeqqqETz6BtWvPUFn5S+ANm9hqqY0VJIsFcFzSkTlT0erpbmIEITbJhDHDZHBgl3aJz5eBbIDoT7gaIAqALUAsXbmWZZtl7HhlLDfVXbtgxfK9nD//G2CKEG5pjKctjRQrSBZLHTguzZCiFK2gbqOOe7COA98eKyumph56vh2kV95AzJ4zVSBbuQ8R2xi1NmUVsqV7zY4YD50+DatXr+XzPc8L4cbbc2dppFhBsljiwHFpC3wF+Bo1NeNIS7vOtnXc7fDkGO/WRB2QwuQ1m1fg7XzqEFKMEtk7O3ZGbtGdOFvPAyUlgm1bl/Hxxz8UZf9eZ06ExXItVpAsFg84LjcCj1FV9STp6SNwnMvV0z1D4Kmx0MajNV8rpDD1JDFromoSc4zwsj0HsGqb9KUrr6sNoaZGcPTICs6ee0osGHEqwaEtjRwrSBaLTxyX9gjxKJeK/o7m2XeSLvvwRubA9x6AG1p5G7cpVxwgGgqjEkhBiqdRohjYg3TnTuS3v6JS3i9aubWeB4qKNtC8+XfExPS99TxhscTECpLFohDHpRkFBd+gtPSfadt2BM2aZQwfAE+N83bJFqTIRPM96jOQOINMvI1VIV1C3jw9Qny2P7U5eRZ+M0tu1V1HZeUWMjN/LlysxY/FF1aQLJaAcFzS2LHjf9Kixb843bsNvHNYE+fJr3h3GXeQAVMDuT5rfhMwnLrPkAqRQnSUxCqiKOvy4M35sonhKmpq1pCW9rxwWelhWIvlOqwgWSwacO5d3paWLV9w2rX73uhH+7Qc/9U0Ot/gfbxo1nzUvO8zYOQ1z5xDOiwcx5sQlVXAu7mwfPN13/oIeFG4rPMwrMVSL1aQLBaNOI6bRsdOP0jv32/ifX83vOM3n2hH+wav49ZPa6QwpSPbxy8iK6FjxBcNUR/bD8If5sOXV9s0zAcmCpdEY/YslriwgmSxGMBx3AzgOxmd2k8c+9y4rk/+fX+ym3k3FWqKjL4o9Lmu4jKZXVSrcUEAc4GXhMs2n8NbLDGxgmSxGMRx3CzgB226tprwrd99o/N9j/fBMWR2t/Fz+NNCKCgCZNPeTOBl4bI75gstFkVYQbJYQoDjuE2Bf8i5r/eEn33wN22yW9frWqScwmJp/bNuJyB3+94C3hIux7UtwmLBCpLFEiocx23RrkfrZ3+9+en/aNUhW1lke32s2wnvLKKqsISFwB+AJcJNuCvcYlGCFSSLJYS4qw4P7zu8y6pmLZsoiWm/loIi+PMSzny6i98CbwuXk0HMY7EkghUkiyWkzIbeVRXVH2dkpfdQOe7mfRyetZKfHjrFPFsNWcKEFSSLJcTMhi5CsMxxyPE7Vkk5Z/LP84/PduE9FWuzWFRjBcliCTmzpStQLtKMwQsVwK+BX46HMmULs1gUYwXJYkkCZksT8NnAuARfugr44XjpHmSxhBorSBZLkjBbWtX9E7LaaShA/Szw0/HwbuALs1gUYQXJYkkyZsNNwGRk5Pq1COAd4Nnx0s7OYkkarCBZLEnIbJlKMQF4jkgM0vkThQU3dGv12HhYY3RxFotHrCBZLEnMbLgD+EPByaLF/zb8zXkFp366wfSaLBav/H+Fkyt9wPuiaAAAAABJRU5ErkJggg==;" vertex="1" parent="1">
          <mxGeometry x="369" y="-860" width="63.32" height="90" as="geometry" />
        </mxCell>
      </root>
    </mxGraphModel>
  </diagram>
</mxfile>
